<svg xmlns="http://www.w3.org/2000/svg" xmlns:xlink="http://www.w3.org/1999/xlink" version="1.1" id="Layer_1" x="0px" y="0px" width="100px" height="100px" viewBox="0 0 100 100" enable-background="new 0 0 100 100" xml:space="preserve">
<path fill="#000000" d="M80.58,51.514l4.937-6.219l4.403,5.583l9.412,11.896H89.92v6.814c0,5.656-4.611,10.268-10.268,10.268H13.6  c-5.655,0-10.268-4.612-10.268-10.268V26.981c0-5.656,4.612-10.268,10.268-10.268h66.053c5.656,0,10.268,4.612,10.268,10.268v5.541  h-9.34v-5.541c0-0.511-0.405-0.939-0.928-0.939H13.6c-0.501,0-0.939,0.428-0.939,0.939v42.605c0,0.521,0.438,0.929,0.939,0.929  h66.053c0.522,0,0.928-0.407,0.928-0.929v-6.814h-8.9L80.58,51.514z"/>
<polygon points="29.082,46.386 34.195,34.689 34.216,34.647 36.303,28.971 43.439,53.242 46.227,41.138 47.958,33.76 53.332,49.527   55.367,42.473 76.473,42.491 76.553,46.428 58.477,46.428 55.451,55.768 54.083,59.983 54.053,60.077 53.604,61.433 53.259,60.473   48.543,47.503 45.339,61.652 44.953,63.364 43.774,68.018 35.761,41.284 32.212,50.404 17.989,50.373 17.989,46.386 "/>
<polygon points="55.451,55.768 55.472,55.83 54.083,59.983 "/>
<polygon points="54.053,60.077 53.583,61.538 53.259,60.473 53.604,61.433 "/>
<polygon points="45.339,61.652 45.559,60.745 45.13,62.665 "/>
</svg>