<svg xmlns="http://www.w3.org/2000/svg" xmlns:xlink="http://www.w3.org/1999/xlink" version="1.1" id="Layer_1" x="0px" y="0px" width="100px" height="100px" viewBox="0 0 100 100" enable-background="new 0 0 100 100" xml:space="preserve">
<g>
	<path d="M82.12,34.846c-6.019,0-11.198,3.654-13.61,8.654H36.818v-17h8.343c2.324,5,7.625,8.549,13.804,8.549   c8.318,0,15.062-6.884,15.062-15.199c0-8.32-6.743-15.204-15.062-15.204c-6.02,0-11.198,3.854-13.61,8.854h-8.536V7.304   c0-2.654-2.15-4.804-4.803-4.804H7.621c-2.652,0-4.803,2.15-4.803,4.804v85.393c0,2.652,2.15,4.803,4.803,4.803h24.396   c2.651,0,4.802-2.15,4.802-4.805V87.5h12.043c2.324,4,7.625,8.447,13.803,8.447c8.318,0,15.062-7.133,15.062-15.448   c0-8.319-6.743-15.454-15.062-15.454c-6.019,0-11.197,4.455-13.609,8.455H36.818v-17h31.5c2.324,5,7.625,8.748,13.803,8.748   c8.318,0,15.061-6.883,15.061-15.199C97.182,41.73,90.439,34.846,82.12,34.846z"/>
</g>
</svg>