<svg xmlns:dc="http://purl.org/dc/elements/1.1/" xmlns:cc="http://creativecommons.org/ns#" xmlns:rdf="http://www.w3.org/1999/02/22-rdf-syntax-ns#" xmlns:svg="http://www.w3.org/2000/svg" xmlns="http://www.w3.org/2000/svg" version="1.1" width="100" height="100" id="svg2">
  <title id="title3073">Flow Chart</title>
  <defs id="defs4"/>
  <metadata id="metadata7">
    <rdf:RDF>
      <cc:Work rdf:about="">
        <dc:format>image/svg+xml</dc:format>
        <dc:type rdf:resource="http://purl.org/dc/dcmitype/StillImage"/>
        <dc:title>Flow Chart</dc:title>
        <cc:license rdf:resource="http://creativecommons.org/licenses/publicdomain/"/>
      </cc:Work>
      <cc:License rdf:about="http://creativecommons.org/licenses/publicdomain/">
        <cc:permits rdf:resource="http://creativecommons.org/ns#Reproduction"/>
        <cc:permits rdf:resource="http://creativecommons.org/ns#Distribution"/>
        <cc:permits rdf:resource="http://creativecommons.org/ns#DerivativeWorks"/>
      </cc:License>
    </rdf:RDF>
  </metadata>
  <g transform="translate(0,-952.36218)" id="layer1">
    <path d="m 50,3.34375 c -5.522847,0 -10,4.4771523 -10,10 0,4.531766 3.023111,8.365915 7.15625,9.59375 l 0,1.78125 -19.59375,0 0,20 19.59375,0 0,4.25 L 35,61.125 l 12.15625,12.15625 0,4.625 C 43.022663,79.133806 40,82.967916 40,87.5 c 0,5.522848 4.477153,10 10,10 5.522847,0 10,-4.477152 10,-10 0,-4.532084 -3.022663,-8.366194 -7.15625,-9.59375 l 0,-4.625 9.03125,-9.03125 28.65625,0 0,-5.6875 0,-29.96875 -5.5,0 -0.1875,0 0,0.125 -12.40625,7.40625 0,-11.40625 -19.59375,0 0,-1.78125 C 56.976889,21.709665 60,17.875516 60,13.34375 c 0,-5.5228477 -4.477153,-10 -10,-10 z m 22.4375,33.09375 12.40625,6.9375 0,15.1875 -22.40625,0 -9.59375,-9.59375 0,-4.25 19.59375,0 0,-8.28125 z" transform="translate(0,952.36218)" id="path2985" style="fill:#000000;fill-opacity:1;fill-rule:nonzero;stroke:none"/>
  </g>
</svg>